<svg version="1.1" xmlns="http://www.w3.org/2000/svg">
<path fill-rule="evenodd" fill="#FFFFFF" stroke="#000000" stroke-width="2.0" opacity="0.1" d="M 0.0,0.0 L 4.0,0.0 L 4.0,4.0 L 0.0,4.0 L 0.0,0.0 z" />
<path fill-rule="evenodd" fill="#24B130" stroke="#000000" stroke-width="2.0" opacity="0.5" d="M 0.0,0.0 L 1.0,0.0 L 1.0,1.0 L 0.0,1.0 L 0.0,0.0 z" />
<path fill-rule="evenodd" fill="#33D8CD" stroke="#000000" stroke-width="2.0" opacity="0.5" d="M 1.0,0.0 L 2.0,0.0 L 2.0,1.0 L 1.0,1.0 L 1.0,0.0 z" />
<path fill-rule="evenodd" fill="#B37BC0" stroke="#000000" stroke-width="2.0" opacity="0.5" d="M 2.0,0.0 L 3.0,0.0 L 3.0,1.0 L 2.0,1.0 L 2.0,0.0 z" />
<path fill-rule="evenodd" fill="#CDBF9E" stroke="#000000" stroke-width="2.0" opacity="0.5" d="M 3.0,0.0 L 4.0,0.0 L 4.0,1.0 L 3.0,1.0 L 3.0,0.0 z" />
<path fill-rule="evenodd" fill="#E38C56" stroke="#000000" stroke-width="2.0" opacity="0.5" d="M 0.0,1.0 L 1.0,1.0 L 1.0,2.0 L 0.0,2.0 L 0.0,1.0 z" />
<path fill-rule="evenodd" fill="#3251F3" stroke="#000000" stroke-width="2.0" opacity="0.5" d="M 1.0,1.0 L 2.0,1.0 L 2.0,2.0 L 1.0,2.0 L 1.0,1.0 z" />
<path fill-rule="evenodd" fill="#B3BA8E" stroke="#000000" stroke-width="2.0" opacity="0.5" d="M 2.0,1.0 L 3.0,1.0 L 3.0,2.0 L 2.0,2.0 L 2.0,1.0 z" />
<path fill-rule="evenodd" fill="#AB9FB2" stroke="#000000" stroke-width="2.0" opacity="0.5" d="M 3.0,1.0 L 4.0,1.0 L 4.0,2.0 L 3.0,2.0 L 3.0,1.0 z" />
<path fill-rule="evenodd" fill="#30BF30" stroke="#000000" stroke-width="2.0" opacity="0.5" d="M 0.0,2.0 L 1.0,2.0 L 1.0,3.0 L 0.0,3.0 L 0.0,2.0 z" />
<path fill-rule="evenodd" fill="#BEFBA3" stroke="#000000" stroke-width="2.0" opacity="0.5" d="M 1.0,2.0 L 2.0,2.0 L 2.0,3.0 L 1.0,3.0 L 1.0,2.0 z" />
<path fill-rule="evenodd" fill="#D1AC1A" stroke="#000000" stroke-width="2.0" opacity="0.5" d="M 2.0,2.0 L 3.0,2.0 L 3.0,3.0 L 2.0,3.0 L 2.0,2.0 z" />
<path fill-rule="evenodd" fill="#9C6609" stroke="#000000" stroke-width="2.0" opacity="0.5" d="M 3.0,2.0 L 4.0,2.0 L 4.0,3.0 L 3.0,3.0 L 3.0,2.0 z" />
<path fill-rule="evenodd" fill="#2A765D" stroke="#000000" stroke-width="2.0" opacity="0.5" d="M 0.0,3.0 L 1.0,3.0 L 1.0,4.0 L 0.0,4.0 L 0.0,3.0 z" />
<path fill-rule="evenodd" fill="#E5C218" stroke="#000000" stroke-width="2.0" opacity="0.5" d="M 1.0,3.0 L 2.0,3.0 L 2.0,4.0 L 1.0,4.0 L 1.0,3.0 z" />
<path fill-rule="evenodd" fill="#598861" stroke="#000000" stroke-width="2.0" opacity="0.5" d="M 2.0,3.0 L 3.0,3.0 L 3.0,4.0 L 2.0,4.0 L 2.0,3.0 z" />
<path fill-rule="evenodd" fill="#B649F9" stroke="#000000" stroke-width="2.0" opacity="0.5" d="M 3.0,3.0 L 4.0,3.0 L 4.0,4.0 L 3.0,4.0 L 3.0,3.0 z" /></svg>