<svg version="1.1" xmlns="http://www.w3.org/2000/svg">
<path fill-rule="evenodd" fill="#FFFFFF" stroke="#000000" stroke-width="2.0" opacity="0.1" d="M 0.0,0.0 L 5.0,0.0 L 5.0,5.0 L 0.0,5.0 L 0.0,0.0 z" />
<path fill-rule="evenodd" fill="#73C041" stroke="#000000" stroke-width="2.0" opacity="0.5" d="M 0.0,0.0 L 1.0,0.0 L 1.0,4.0 L 0.0,4.0 L 0.0,0.0 z" />
<path fill-rule="evenodd" fill="#636975" stroke="#000000" stroke-width="2.0" opacity="0.5" d="M 0.0,0.0 L 1.0,0.0 L 1.0,1.0 L 0.0,1.0 L 0.0,0.0 z" />
<path fill-rule="evenodd" fill="#082925" stroke="#000000" stroke-width="2.0" opacity="0.5" d="M 0.0,3.0 L 3.0,3.0 L 3.0,5.0 L 0.0,5.0 L 0.0,3.0 z" />
<path fill-rule="evenodd" fill="#B79702" stroke="#000000" stroke-width="2.0" opacity="0.5" d="M 1.0,1.0 L 2.0,1.0 L 2.0,3.0 L 1.0,3.0 L 1.0,1.0 z" />
<path fill-rule="evenodd" fill="#49E716" stroke="#000000" stroke-width="2.0" opacity="0.5" d="M 2.0,0.0 L 4.0,0.0 L 4.0,2.0 L 2.0,2.0 L 2.0,0.0 z" />
<path fill-rule="evenodd" fill="#D2F4DE" stroke="#000000" stroke-width="2.0" opacity="0.5" d="M 3.0,0.0 L 5.0,0.0 L 5.0,1.0 L 3.0,1.0 L 3.0,0.0 z" />
<path fill-rule="evenodd" fill="#8215DA" stroke="#000000" stroke-width="2.0" opacity="0.5" d="M 1.0,1.0 L 4.0,1.0 L 4.0,2.0 L 1.0,2.0 L 1.0,1.0 z" />
<path fill-rule="evenodd" fill="#A5C7EB" stroke="#000000" stroke-width="2.0" opacity="0.5" d="M 3.0,2.0 L 5.0,2.0 L 5.0,4.0 L 3.0,4.0 L 3.0,2.0 z" /></svg>