<svg version="1.1" xmlns="http://www.w3.org/2000/svg">
<path fill-rule="evenodd" fill="#FFFFFF" stroke="#000000" stroke-width="2.0" opacity="0.1" d="M 0.0,0.0 L 4.0,0.0 L 4.0,4.0 L 0.0,4.0 L 0.0,0.0 z" />
<path fill-rule="evenodd" fill="#AC6F22" stroke="#000000" stroke-width="2.0" opacity="0.5" d="M 0.0,0.0 L 1.0,0.0 L 1.0,1.0 L 0.0,1.0 L 0.0,0.0 z" />
<path fill-rule="evenodd" fill="#2A4A7C" stroke="#000000" stroke-width="2.0" opacity="0.5" d="M 1.0,0.0 L 2.0,0.0 L 2.0,1.0 L 1.0,1.0 L 1.0,0.0 z" />
<path fill-rule="evenodd" fill="#460505" stroke="#000000" stroke-width="2.0" opacity="0.5" d="M 2.0,0.0 L 3.0,0.0 L 3.0,1.0 L 2.0,1.0 L 2.0,0.0 z" />
<path fill-rule="evenodd" fill="#15ECBE" stroke="#000000" stroke-width="2.0" opacity="0.5" d="M 3.0,0.0 L 4.0,0.0 L 4.0,1.0 L 3.0,1.0 L 3.0,0.0 z" />
<path fill-rule="evenodd" fill="#9893DF" stroke="#000000" stroke-width="2.0" opacity="0.5" d="M 0.0,1.0 L 1.0,1.0 L 1.0,2.0 L 0.0,2.0 L 0.0,1.0 z" />
<path fill-rule="evenodd" fill="#67ECB0" stroke="#000000" stroke-width="2.0" opacity="0.5" d="M 1.0,1.0 L 2.0,1.0 L 2.0,2.0 L 1.0,2.0 L 1.0,1.0 z" />
<path fill-rule="evenodd" fill="#847D2A" stroke="#000000" stroke-width="2.0" opacity="0.5" d="M 2.0,1.0 L 3.0,1.0 L 3.0,2.0 L 2.0,2.0 L 2.0,1.0 z" />
<path fill-rule="evenodd" fill="#C6A61E" stroke="#000000" stroke-width="2.0" opacity="0.5" d="M 3.0,1.0 L 4.0,1.0 L 4.0,2.0 L 3.0,2.0 L 3.0,1.0 z" />
<path fill-rule="evenodd" fill="#A3CEED" stroke="#000000" stroke-width="2.0" opacity="0.5" d="M 0.0,2.0 L 1.0,2.0 L 1.0,3.0 L 0.0,3.0 L 0.0,2.0 z" />
<path fill-rule="evenodd" fill="#11735B" stroke="#000000" stroke-width="2.0" opacity="0.5" d="M 1.0,2.0 L 2.0,2.0 L 2.0,3.0 L 1.0,3.0 L 1.0,2.0 z" />
<path fill-rule="evenodd" fill="#217659" stroke="#000000" stroke-width="2.0" opacity="0.5" d="M 2.0,2.0 L 3.0,2.0 L 3.0,3.0 L 2.0,3.0 L 2.0,2.0 z" />
<path fill-rule="evenodd" fill="#69751F" stroke="#000000" stroke-width="2.0" opacity="0.5" d="M 3.0,2.0 L 4.0,2.0 L 4.0,3.0 L 3.0,3.0 L 3.0,2.0 z" />
<path fill-rule="evenodd" fill="#121650" stroke="#000000" stroke-width="2.0" opacity="0.5" d="M 0.0,3.0 L 1.0,3.0 L 1.0,4.0 L 0.0,4.0 L 0.0,3.0 z" />
<path fill-rule="evenodd" fill="#E98A36" stroke="#000000" stroke-width="2.0" opacity="0.5" d="M 1.0,3.0 L 2.0,3.0 L 2.0,4.0 L 1.0,4.0 L 1.0,3.0 z" />
<path fill-rule="evenodd" fill="#391897" stroke="#000000" stroke-width="2.0" opacity="0.5" d="M 2.0,3.0 L 3.0,3.0 L 3.0,4.0 L 2.0,4.0 L 2.0,3.0 z" />
<path fill-rule="evenodd" fill="#5BE0D7" stroke="#000000" stroke-width="2.0" opacity="0.5" d="M 3.0,3.0 L 4.0,3.0 L 4.0,4.0 L 3.0,4.0 L 3.0,3.0 z" /></svg>