<svg version="1.1" xmlns="http://www.w3.org/2000/svg">
<path fill-rule="evenodd" fill="#FFFFFF" stroke="#000000" stroke-width="2.0" opacity="0.1" d="M 0.0,0.0 L 4.0,0.0 L 4.0,4.0 L 0.0,4.0 L 0.0,0.0 z" />
<path fill-rule="evenodd" fill="#C4EDBA" stroke="#000000" stroke-width="2.0" opacity="0.5" d="M 0.0,0.0 L 1.0,0.0 L 1.0,4.0 L 0.0,4.0 L 0.0,0.0 z" />
<path fill-rule="evenodd" fill="#8F31FD" stroke="#000000" stroke-width="2.0" opacity="0.5" d="M 0.0,0.0 L 4.0,0.0 L 4.0,1.0 L 0.0,1.0 L 0.0,0.0 z" />
<path fill-rule="evenodd" fill="#1074E2" stroke="#000000" stroke-width="2.0" opacity="0.5" d="M 1.0,1.0 L 2.0,1.0 L 2.0,4.0 L 1.0,4.0 L 1.0,1.0 z" />
<path fill-rule="evenodd" fill="#CB4304" stroke="#000000" stroke-width="2.0" opacity="0.5" d="M 1.0,1.0 L 4.0,1.0 L 4.0,2.0 L 1.0,2.0 L 1.0,1.0 z" />
<path fill-rule="evenodd" fill="#D3CC4F" stroke="#000000" stroke-width="2.0" opacity="0.5" d="M 2.0,2.0 L 3.0,2.0 L 3.0,4.0 L 2.0,4.0 L 2.0,2.0 z" />
<path fill-rule="evenodd" fill="#98F6AE" stroke="#000000" stroke-width="2.0" opacity="0.5" d="M 2.0,2.0 L 4.0,2.0 L 4.0,3.0 L 2.0,3.0 L 2.0,2.0 z" />
<path fill-rule="evenodd" fill="#BB5C58" stroke="#000000" stroke-width="2.0" opacity="0.5" d="M 3.0,3.0 L 4.0,3.0 L 4.0,4.0 L 3.0,4.0 L 3.0,3.0 z" />
<path fill-rule="evenodd" fill="#B0BAB7" stroke="#000000" stroke-width="2.0" opacity="0.5" d="M 3.0,3.0 L 4.0,3.0 L 4.0,4.0 L 3.0,4.0 L 3.0,3.0 z" /></svg>