<svg version="1.1" xmlns="http://www.w3.org/2000/svg">
<path fill-rule="evenodd" fill="#FFFFFF" stroke="#000000" stroke-width="2.0" opacity="0.1" d="M 0.0,0.0 L 4.0,0.0 L 4.0,4.0 L 0.0,4.0 L 0.0,0.0 z" />
<path fill-rule="evenodd" fill="#DDF55D" stroke="#000000" stroke-width="2.0" opacity="0.5" d="M 0.0,0.0 L 1.0,0.0 L 1.0,4.0 L 0.0,4.0 L 0.0,0.0 z" />
<path fill-rule="evenodd" fill="#8A7072" stroke="#000000" stroke-width="2.0" opacity="0.5" d="M 0.0,0.0 L 4.0,0.0 L 4.0,1.0 L 0.0,1.0 L 0.0,0.0 z" />
<path fill-rule="evenodd" fill="#722C43" stroke="#000000" stroke-width="2.0" opacity="0.5" d="M 1.0,1.0 L 2.0,1.0 L 2.0,4.0 L 1.0,4.0 L 1.0,1.0 z" />
<path fill-rule="evenodd" fill="#8FC1F5" stroke="#000000" stroke-width="2.0" opacity="0.5" d="M 1.0,1.0 L 4.0,1.0 L 4.0,2.0 L 1.0,2.0 L 1.0,1.0 z" />
<path fill-rule="evenodd" fill="#05D5BC" stroke="#000000" stroke-width="2.0" opacity="0.5" d="M 2.0,2.0 L 3.0,2.0 L 3.0,4.0 L 2.0,4.0 L 2.0,2.0 z" />
<path fill-rule="evenodd" fill="#D1A8D5" stroke="#000000" stroke-width="2.0" opacity="0.5" d="M 2.0,2.0 L 4.0,2.0 L 4.0,3.0 L 2.0,3.0 L 2.0,2.0 z" />
<path fill-rule="evenodd" fill="#14813E" stroke="#000000" stroke-width="2.0" opacity="0.5" d="M 3.0,3.0 L 4.0,3.0 L 4.0,4.0 L 3.0,4.0 L 3.0,3.0 z" />
<path fill-rule="evenodd" fill="#0576BB" stroke="#000000" stroke-width="2.0" opacity="0.5" d="M 3.0,3.0 L 4.0,3.0 L 4.0,4.0 L 3.0,4.0 L 3.0,3.0 z" /></svg>