<svg version="1.1" xmlns="http://www.w3.org/2000/svg">
<path fill-rule="evenodd" fill="#FFFFFF" stroke="#000000" stroke-width="2.0" opacity="0.1" d="M 0.0,0.0 L 60.0,0.0 L 60.0,60.0 L 0.0,60.0 L 0.0,0.0 z" />
<path fill-rule="evenodd" fill="#F3F4D2" stroke="#000000" stroke-width="2.0" opacity="0.5" d="M 0.0,0.0 L 10.0,0.0 L 10.0,10.0 L 0.0,10.0 L 0.0,0.0 z" />
<path fill-rule="evenodd" fill="#234850" stroke="#000000" stroke-width="2.0" opacity="0.5" d="M 10.0,0.0 L 20.0,0.0 L 20.0,10.0 L 10.0,10.0 L 10.0,0.0 z" />
<path fill-rule="evenodd" fill="#0DF832" stroke="#000000" stroke-width="2.0" opacity="0.5" d="M 20.0,0.0 L 30.0,0.0 L 30.0,10.0 L 20.0,10.0 L 20.0,0.0 z" />
<path fill-rule="evenodd" fill="#0790C2" stroke="#000000" stroke-width="2.0" opacity="0.5" d="M 30.0,0.0 L 40.0,0.0 L 40.0,10.0 L 30.0,10.0 L 30.0,0.0 z" />
<path fill-rule="evenodd" fill="#DF28BB" stroke="#000000" stroke-width="2.0" opacity="0.5" d="M 40.0,0.0 L 50.0,0.0 L 50.0,10.0 L 40.0,10.0 L 40.0,0.0 z" />
<path fill-rule="evenodd" fill="#BB3A32" stroke="#000000" stroke-width="2.0" opacity="0.5" d="M 50.0,0.0 L 60.0,0.0 L 60.0,10.0 L 50.0,10.0 L 50.0,0.0 z" />
<path fill-rule="evenodd" fill="#CC20E5" stroke="#000000" stroke-width="2.0" opacity="0.5" d="M 0.0,10.0 L 10.0,10.0 L 10.0,20.0 L 0.0,20.0 L 0.0,10.0 z" />
<path fill-rule="evenodd" fill="#80E0D6" stroke="#000000" stroke-width="2.0" opacity="0.5" d="M 10.0,10.0 L 20.0,10.0 L 20.0,20.0 L 10.0,20.0 L 10.0,10.0 z" />
<path fill-rule="evenodd" fill="#4DC196" stroke="#000000" stroke-width="2.0" opacity="0.5" d="M 20.0,10.0 L 30.0,10.0 L 30.0,20.0 L 20.0,20.0 L 20.0,10.0 z" />
<path fill-rule="evenodd" fill="#0F86AE" stroke="#000000" stroke-width="2.0" opacity="0.5" d="M 30.0,10.0 L 40.0,10.0 L 40.0,20.0 L 30.0,20.0 L 30.0,10.0 z" />
<path fill-rule="evenodd" fill="#0AFA21" stroke="#000000" stroke-width="2.0" opacity="0.5" d="M 40.0,10.0 L 50.0,10.0 L 50.0,20.0 L 40.0,20.0 L 40.0,10.0 z" />
<path fill-rule="evenodd" fill="#17C877" stroke="#000000" stroke-width="2.0" opacity="0.5" d="M 50.0,10.0 L 60.0,10.0 L 60.0,20.0 L 50.0,20.0 L 50.0,10.0 z" />
<path fill-rule="evenodd" fill="#D7F899" stroke="#000000" stroke-width="2.0" opacity="0.5" d="M 0.0,20.0 L 10.0,20.0 L 10.0,30.0 L 0.0,30.0 L 0.0,20.0 z" />
<path fill-rule="evenodd" fill="#84568F" stroke="#000000" stroke-width="2.0" opacity="0.5" d="M 10.0,20.0 L 20.0,20.0 L 20.0,30.0 L 10.0,30.0 L 10.0,20.0 z" />
<path fill-rule="evenodd" fill="#F52899" stroke="#000000" stroke-width="2.0" opacity="0.5" d="M 20.0,20.0 L 30.0,20.0 L 30.0,30.0 L 20.0,30.0 L 20.0,20.0 z" />
<path fill-rule="evenodd" fill="#1E3846" stroke="#000000" stroke-width="2.0" opacity="0.5" d="M 30.0,20.0 L 40.0,20.0 L 40.0,30.0 L 30.0,30.0 L 30.0,20.0 z" />
<path fill-rule="evenodd" fill="#692803" stroke="#000000" stroke-width="2.0" opacity="0.5" d="M 40.0,20.0 L 50.0,20.0 L 50.0,30.0 L 40.0,30.0 L 40.0,20.0 z" />
<path fill-rule="evenodd" fill="#153327" stroke="#000000" stroke-width="2.0" opacity="0.5" d="M 50.0,20.0 L 60.0,20.0 L 60.0,30.0 L 50.0,30.0 L 50.0,20.0 z" />
<path fill-rule="evenodd" fill="#4D09B9" stroke="#000000" stroke-width="2.0" opacity="0.5" d="M 0.0,30.0 L 10.0,30.0 L 10.0,40.0 L 0.0,40.0 L 0.0,30.0 z" />
<path fill-rule="evenodd" fill="#C49B15" stroke="#000000" stroke-width="2.0" opacity="0.5" d="M 10.0,30.0 L 20.0,30.0 L 20.0,40.0 L 10.0,40.0 L 10.0,30.0 z" />
<path fill-rule="evenodd" fill="#A063CD" stroke="#000000" stroke-width="2.0" opacity="0.5" d="M 20.0,30.0 L 30.0,30.0 L 30.0,40.0 L 20.0,40.0 L 20.0,30.0 z" />
<path fill-rule="evenodd" fill="#849474" stroke="#000000" stroke-width="2.0" opacity="0.5" d="M 30.0,30.0 L 40.0,30.0 L 40.0,40.0 L 30.0,40.0 L 30.0,30.0 z" />
<path fill-rule="evenodd" fill="#F55D7A" stroke="#000000" stroke-width="2.0" opacity="0.5" d="M 40.0,30.0 L 50.0,30.0 L 50.0,40.0 L 40.0,40.0 L 40.0,30.0 z" />
<path fill-rule="evenodd" fill="#920ED5" stroke="#000000" stroke-width="2.0" opacity="0.5" d="M 50.0,30.0 L 60.0,30.0 L 60.0,40.0 L 50.0,40.0 L 50.0,30.0 z" />
<path fill-rule="evenodd" fill="#6ECB6F" stroke="#000000" stroke-width="2.0" opacity="0.5" d="M 0.0,40.0 L 10.0,40.0 L 10.0,50.0 L 0.0,50.0 L 0.0,40.0 z" />
<path fill-rule="evenodd" fill="#1B5188" stroke="#000000" stroke-width="2.0" opacity="0.5" d="M 10.0,40.0 L 20.0,40.0 L 20.0,50.0 L 10.0,50.0 L 10.0,40.0 z" />
<path fill-rule="evenodd" fill="#3C4EA1" stroke="#000000" stroke-width="2.0" opacity="0.5" d="M 20.0,40.0 L 30.0,40.0 L 30.0,50.0 L 20.0,50.0 L 20.0,40.0 z" />
<path fill-rule="evenodd" fill="#96349A" stroke="#000000" stroke-width="2.0" opacity="0.5" d="M 30.0,40.0 L 40.0,40.0 L 40.0,50.0 L 30.0,50.0 L 30.0,40.0 z" />
<path fill-rule="evenodd" fill="#ECB71E" stroke="#000000" stroke-width="2.0" opacity="0.5" d="M 40.0,40.0 L 50.0,40.0 L 50.0,50.0 L 40.0,50.0 L 40.0,40.0 z" />
<path fill-rule="evenodd" fill="#96FEEC" stroke="#000000" stroke-width="2.0" opacity="0.5" d="M 50.0,40.0 L 60.0,40.0 L 60.0,50.0 L 50.0,50.0 L 50.0,40.0 z" />
<path fill-rule="evenodd" fill="#4A28B4" stroke="#000000" stroke-width="2.0" opacity="0.5" d="M 0.0,50.0 L 10.0,50.0 L 10.0,60.0 L 0.0,60.0 L 0.0,50.0 z" />
<path fill-rule="evenodd" fill="#4D2FC2" stroke="#000000" stroke-width="2.0" opacity="0.5" d="M 10.0,50.0 L 20.0,50.0 L 20.0,60.0 L 10.0,60.0 L 10.0,50.0 z" />
<path fill-rule="evenodd" fill="#24BDA4" stroke="#000000" stroke-width="2.0" opacity="0.5" d="M 20.0,50.0 L 30.0,50.0 L 30.0,60.0 L 20.0,60.0 L 20.0,50.0 z" />
<path fill-rule="evenodd" fill="#E6494F" stroke="#000000" stroke-width="2.0" opacity="0.5" d="M 30.0,50.0 L 40.0,50.0 L 40.0,60.0 L 30.0,60.0 L 30.0,50.0 z" />
<path fill-rule="evenodd" fill="#65A4D4" stroke="#000000" stroke-width="2.0" opacity="0.5" d="M 40.0,50.0 L 50.0,50.0 L 50.0,60.0 L 40.0,60.0 L 40.0,50.0 z" />
<path fill-rule="evenodd" fill="#397D88" stroke="#000000" stroke-width="2.0" opacity="0.5" d="M 50.0,50.0 L 60.0,50.0 L 60.0,60.0 L 50.0,60.0 L 50.0,50.0 z" /></svg>