<svg version="1.1" xmlns="http://www.w3.org/2000/svg">
<path fill-rule="evenodd" fill="#FFFFFF" stroke="#000000" stroke-width="2.0" opacity="0.1" d="M 0.0,0.0 L 60.0,0.0 L 60.0,60.0 L 0.0,60.0 L 0.0,0.0 z" />
<path fill-rule="evenodd" fill="#F7B831" stroke="#000000" stroke-width="2.0" opacity="0.5" d="M 0.0,0.0 L 10.0,0.0 L 10.0,10.0 L 0.0,10.0 L 0.0,0.0 z" />
<path fill-rule="evenodd" fill="#296C5D" stroke="#000000" stroke-width="2.0" opacity="0.5" d="M 10.0,0.0 L 20.0,0.0 L 20.0,10.0 L 10.0,10.0 L 10.0,0.0 z" />
<path fill-rule="evenodd" fill="#399505" stroke="#000000" stroke-width="2.0" opacity="0.5" d="M 20.0,0.0 L 30.0,0.0 L 30.0,10.0 L 20.0,10.0 L 20.0,0.0 z" />
<path fill-rule="evenodd" fill="#2EFCDB" stroke="#000000" stroke-width="2.0" opacity="0.5" d="M 30.0,0.0 L 40.0,0.0 L 40.0,10.0 L 30.0,10.0 L 30.0,0.0 z" />
<path fill-rule="evenodd" fill="#2D5785" stroke="#000000" stroke-width="2.0" opacity="0.5" d="M 40.0,0.0 L 50.0,0.0 L 50.0,10.0 L 40.0,10.0 L 40.0,0.0 z" />
<path fill-rule="evenodd" fill="#718C99" stroke="#000000" stroke-width="2.0" opacity="0.5" d="M 50.0,0.0 L 60.0,0.0 L 60.0,10.0 L 50.0,10.0 L 50.0,0.0 z" />
<path fill-rule="evenodd" fill="#1BCF74" stroke="#000000" stroke-width="2.0" opacity="0.5" d="M 0.0,10.0 L 10.0,10.0 L 10.0,20.0 L 0.0,20.0 L 0.0,10.0 z" />
<path fill-rule="evenodd" fill="#C62A83" stroke="#000000" stroke-width="2.0" opacity="0.5" d="M 10.0,10.0 L 20.0,10.0 L 20.0,20.0 L 10.0,20.0 L 10.0,10.0 z" />
<path fill-rule="evenodd" fill="#BEFD6D" stroke="#000000" stroke-width="2.0" opacity="0.5" d="M 20.0,10.0 L 30.0,10.0 L 30.0,20.0 L 20.0,20.0 L 20.0,10.0 z" />
<path fill-rule="evenodd" fill="#C298EF" stroke="#000000" stroke-width="2.0" opacity="0.5" d="M 30.0,10.0 L 40.0,10.0 L 40.0,20.0 L 30.0,20.0 L 30.0,10.0 z" />
<path fill-rule="evenodd" fill="#08F856" stroke="#000000" stroke-width="2.0" opacity="0.5" d="M 40.0,10.0 L 50.0,10.0 L 50.0,20.0 L 40.0,20.0 L 40.0,10.0 z" />
<path fill-rule="evenodd" fill="#F3DD3C" stroke="#000000" stroke-width="2.0" opacity="0.5" d="M 50.0,10.0 L 60.0,10.0 L 60.0,20.0 L 50.0,20.0 L 50.0,10.0 z" />
<path fill-rule="evenodd" fill="#5E7CFB" stroke="#000000" stroke-width="2.0" opacity="0.5" d="M 0.0,20.0 L 10.0,20.0 L 10.0,30.0 L 0.0,30.0 L 0.0,20.0 z" />
<path fill-rule="evenodd" fill="#D94043" stroke="#000000" stroke-width="2.0" opacity="0.5" d="M 10.0,20.0 L 20.0,20.0 L 20.0,30.0 L 10.0,30.0 L 10.0,20.0 z" />
<path fill-rule="evenodd" fill="#C627E5" stroke="#000000" stroke-width="2.0" opacity="0.5" d="M 20.0,20.0 L 30.0,20.0 L 30.0,30.0 L 20.0,30.0 L 20.0,20.0 z" />
<path fill-rule="evenodd" fill="#FA8198" stroke="#000000" stroke-width="2.0" opacity="0.5" d="M 30.0,20.0 L 40.0,20.0 L 40.0,30.0 L 30.0,30.0 L 30.0,20.0 z" />
<path fill-rule="evenodd" fill="#457554" stroke="#000000" stroke-width="2.0" opacity="0.5" d="M 40.0,20.0 L 50.0,20.0 L 50.0,30.0 L 40.0,30.0 L 40.0,20.0 z" />
<path fill-rule="evenodd" fill="#686FBD" stroke="#000000" stroke-width="2.0" opacity="0.5" d="M 50.0,20.0 L 60.0,20.0 L 60.0,30.0 L 50.0,30.0 L 50.0,20.0 z" />
<path fill-rule="evenodd" fill="#A494F0" stroke="#000000" stroke-width="2.0" opacity="0.5" d="M 0.0,30.0 L 10.0,30.0 L 10.0,40.0 L 0.0,40.0 L 0.0,30.0 z" />
<path fill-rule="evenodd" fill="#5BA350" stroke="#000000" stroke-width="2.0" opacity="0.5" d="M 10.0,30.0 L 20.0,30.0 L 20.0,40.0 L 10.0,40.0 L 10.0,30.0 z" />
<path fill-rule="evenodd" fill="#844E8A" stroke="#000000" stroke-width="2.0" opacity="0.5" d="M 20.0,30.0 L 30.0,30.0 L 30.0,40.0 L 20.0,40.0 L 20.0,30.0 z" />
<path fill-rule="evenodd" fill="#68C6D3" stroke="#000000" stroke-width="2.0" opacity="0.5" d="M 30.0,30.0 L 40.0,30.0 L 40.0,40.0 L 30.0,40.0 L 30.0,30.0 z" />
<path fill-rule="evenodd" fill="#2D285E" stroke="#000000" stroke-width="2.0" opacity="0.5" d="M 40.0,30.0 L 50.0,30.0 L 50.0,40.0 L 40.0,40.0 L 40.0,30.0 z" />
<path fill-rule="evenodd" fill="#C99FAB" stroke="#000000" stroke-width="2.0" opacity="0.5" d="M 50.0,30.0 L 60.0,30.0 L 60.0,40.0 L 50.0,40.0 L 50.0,30.0 z" />
<path fill-rule="evenodd" fill="#2FCBF5" stroke="#000000" stroke-width="2.0" opacity="0.5" d="M 0.0,40.0 L 10.0,40.0 L 10.0,50.0 L 0.0,50.0 L 0.0,40.0 z" />
<path fill-rule="evenodd" fill="#844C22" stroke="#000000" stroke-width="2.0" opacity="0.5" d="M 10.0,40.0 L 20.0,40.0 L 20.0,50.0 L 10.0,50.0 L 10.0,40.0 z" />
<path fill-rule="evenodd" fill="#9B5B7D" stroke="#000000" stroke-width="2.0" opacity="0.5" d="M 20.0,40.0 L 30.0,40.0 L 30.0,50.0 L 20.0,50.0 L 20.0,40.0 z" />
<path fill-rule="evenodd" fill="#0EB413" stroke="#000000" stroke-width="2.0" opacity="0.5" d="M 30.0,40.0 L 40.0,40.0 L 40.0,50.0 L 30.0,50.0 L 30.0,40.0 z" />
<path fill-rule="evenodd" fill="#7DCDCC" stroke="#000000" stroke-width="2.0" opacity="0.5" d="M 40.0,40.0 L 50.0,40.0 L 50.0,50.0 L 40.0,50.0 L 40.0,40.0 z" />
<path fill-rule="evenodd" fill="#2671ED" stroke="#000000" stroke-width="2.0" opacity="0.5" d="M 50.0,40.0 L 60.0,40.0 L 60.0,50.0 L 50.0,50.0 L 50.0,40.0 z" />
<path fill-rule="evenodd" fill="#90EC4A" stroke="#000000" stroke-width="2.0" opacity="0.5" d="M 0.0,50.0 L 10.0,50.0 L 10.0,60.0 L 0.0,60.0 L 0.0,50.0 z" />
<path fill-rule="evenodd" fill="#50F469" stroke="#000000" stroke-width="2.0" opacity="0.5" d="M 10.0,50.0 L 20.0,50.0 L 20.0,60.0 L 10.0,60.0 L 10.0,50.0 z" />
<path fill-rule="evenodd" fill="#1816A0" stroke="#000000" stroke-width="2.0" opacity="0.5" d="M 20.0,50.0 L 30.0,50.0 L 30.0,60.0 L 20.0,60.0 L 20.0,50.0 z" />
<path fill-rule="evenodd" fill="#520D51" stroke="#000000" stroke-width="2.0" opacity="0.5" d="M 30.0,50.0 L 40.0,50.0 L 40.0,60.0 L 30.0,60.0 L 30.0,50.0 z" />
<path fill-rule="evenodd" fill="#F7BF90" stroke="#000000" stroke-width="2.0" opacity="0.5" d="M 40.0,50.0 L 50.0,50.0 L 50.0,60.0 L 40.0,60.0 L 40.0,50.0 z" />
<path fill-rule="evenodd" fill="#E33B34" stroke="#000000" stroke-width="2.0" opacity="0.5" d="M 50.0,50.0 L 60.0,50.0 L 60.0,60.0 L 50.0,60.0 L 50.0,50.0 z" /></svg>