<svg version="1.1" xmlns="http://www.w3.org/2000/svg">
<path fill-rule="evenodd" fill="#FFFFFF" stroke="#000000" stroke-width="2.0" opacity="0.1" d="M 0.0,0.0 L 500.0,0.0 L 500.0,700.0 L 0.0,700.0 L 0.0,0.0 z" />
<path fill-rule="evenodd" fill="#F53F11" stroke="#000000" stroke-width="2.0" opacity="0.5" d="M 0.0,0.0 L 125.0,0.0 L 125.0,700.0 L 0.0,700.0 L 0.0,0.0 z" />
<path fill-rule="evenodd" fill="#5D9776" stroke="#000000" stroke-width="2.0" opacity="0.5" d="M 125.0,550.0 L 500.0,550.0 L 500.0,700.0 L 125.0,700.0 L 125.0,550.0 z" />
<path fill-rule="evenodd" fill="#7300AD" stroke="#000000" stroke-width="2.0" opacity="0.5" d="M 100.0,200.0 L 500.0,200.0 L 500.0,550.0 L 100.0,550.0 L 100.0,200.0 z" />
<path fill-rule="evenodd" fill="#C21B13" stroke="#000000" stroke-width="2.0" opacity="0.5" d="M 0.0,0.0 L 500.0,0.0 L 500.0,125.0 L 0.0,125.0 L 0.0,0.0 z" />
<path fill-rule="evenodd" fill="#78CC3E" stroke="#000000" stroke-width="2.0" opacity="0.5" d="M 0.0,50.0 L 500.0,50.0 L 500.0,550.0 L 0.0,550.0 L 0.0,50.0 z" /></svg>