<svg version="1.1" xmlns="http://www.w3.org/2000/svg">
<path fill-rule="evenodd" fill="#FFFFFF" stroke="#000000" stroke-width="2.0" opacity="0.1" d="M 0.0,0.0 L 60.0,0.0 L 60.0,60.0 L 0.0,60.0 L 0.0,0.0 z" />
<path fill-rule="evenodd" fill="#5B0FE7" stroke="#000000" stroke-width="2.0" opacity="0.5" d="M 0.0,0.0 L 10.0,0.0 L 10.0,10.0 L 0.0,10.0 L 0.0,0.0 z" />
<path fill-rule="evenodd" fill="#652154" stroke="#000000" stroke-width="2.0" opacity="0.5" d="M 0.0,0.0 L 20.0,0.0 L 20.0,20.0 L 0.0,20.0 L 0.0,0.0 z" />
<path fill-rule="evenodd" fill="#BB4AE6" stroke="#000000" stroke-width="2.0" opacity="0.5" d="M 0.0,0.0 L 30.0,0.0 L 30.0,30.0 L 0.0,30.0 L 0.0,0.0 z" />
<path fill-rule="evenodd" fill="#616976" stroke="#000000" stroke-width="2.0" opacity="0.5" d="M 0.0,0.0 L 40.0,0.0 L 40.0,40.0 L 0.0,40.0 L 0.0,0.0 z" />
<path fill-rule="evenodd" fill="#D59F03" stroke="#000000" stroke-width="2.0" opacity="0.5" d="M 0.0,0.0 L 50.0,0.0 L 50.0,50.0 L 0.0,50.0 L 0.0,0.0 z" />
<path fill-rule="evenodd" fill="#A0D3B1" stroke="#000000" stroke-width="2.0" opacity="0.5" d="M 0.0,0.0 L 60.0,0.0 L 60.0,60.0 L 0.0,60.0 L 0.0,0.0 z" /></svg>