<svg version="1.1" xmlns="http://www.w3.org/2000/svg">
<path fill-rule="evenodd" fill="#FFFFFF" stroke="#000000" stroke-width="2.0" opacity="0.1" d="M 0.0,0.0 L 60.0,0.0 L 60.0,60.0 L 0.0,60.0 L 0.0,0.0 z" />
<path fill-rule="evenodd" fill="#704702" stroke="#000000" stroke-width="2.0" opacity="0.5" d="M 0.0,0.0 L 10.0,0.0 L 10.0,60.0 L 0.0,60.0 L 0.0,0.0 z" />
<path fill-rule="evenodd" fill="#40E108" stroke="#000000" stroke-width="2.0" opacity="0.5" d="M 0.0,0.0 L 60.0,0.0 L 60.0,10.0 L 0.0,10.0 L 0.0,0.0 z" />
<path fill-rule="evenodd" fill="#BB06BA" stroke="#000000" stroke-width="2.0" opacity="0.5" d="M 10.0,10.0 L 20.0,10.0 L 20.0,60.0 L 10.0,60.0 L 10.0,10.0 z" />
<path fill-rule="evenodd" fill="#6C8717" stroke="#000000" stroke-width="2.0" opacity="0.5" d="M 10.0,10.0 L 60.0,10.0 L 60.0,20.0 L 10.0,20.0 L 10.0,10.0 z" />
<path fill-rule="evenodd" fill="#64EC83" stroke="#000000" stroke-width="2.0" opacity="0.5" d="M 20.0,20.0 L 30.0,20.0 L 30.0,60.0 L 20.0,60.0 L 20.0,20.0 z" />
<path fill-rule="evenodd" fill="#8A3384" stroke="#000000" stroke-width="2.0" opacity="0.5" d="M 20.0,20.0 L 60.0,20.0 L 60.0,30.0 L 20.0,30.0 L 20.0,20.0 z" />
<path fill-rule="evenodd" fill="#5EC256" stroke="#000000" stroke-width="2.0" opacity="0.5" d="M 30.0,30.0 L 40.0,30.0 L 40.0,60.0 L 30.0,60.0 L 30.0,30.0 z" />
<path fill-rule="evenodd" fill="#342939" stroke="#000000" stroke-width="2.0" opacity="0.5" d="M 30.0,30.0 L 60.0,30.0 L 60.0,40.0 L 30.0,40.0 L 30.0,30.0 z" />
<path fill-rule="evenodd" fill="#DF2B37" stroke="#000000" stroke-width="2.0" opacity="0.5" d="M 40.0,40.0 L 50.0,40.0 L 50.0,60.0 L 40.0,60.0 L 40.0,40.0 z" />
<path fill-rule="evenodd" fill="#F1D6AE" stroke="#000000" stroke-width="2.0" opacity="0.5" d="M 40.0,40.0 L 60.0,40.0 L 60.0,50.0 L 40.0,50.0 L 40.0,40.0 z" />
<path fill-rule="evenodd" fill="#450C07" stroke="#000000" stroke-width="2.0" opacity="0.5" d="M 50.0,50.0 L 60.0,50.0 L 60.0,60.0 L 50.0,60.0 L 50.0,50.0 z" />
<path fill-rule="evenodd" fill="#6D7A82" stroke="#000000" stroke-width="2.0" opacity="0.5" d="M 50.0,50.0 L 60.0,50.0 L 60.0,60.0 L 50.0,60.0 L 50.0,50.0 z" /></svg>