<svg version="1.1" xmlns="http://www.w3.org/2000/svg">
<path fill-rule="evenodd" fill="#FFFFFF" stroke="#000000" stroke-width="2.0" opacity="0.1" d="M 0.0,0.0 L 60.0,0.0 L 60.0,60.0 L 0.0,60.0 L 0.0,0.0 z" />
<path fill-rule="evenodd" fill="#D535EA" stroke="#000000" stroke-width="2.0" opacity="0.5" d="M 0.0,0.0 L 10.0,0.0 L 10.0,60.0 L 0.0,60.0 L 0.0,0.0 z" />
<path fill-rule="evenodd" fill="#2F6E91" stroke="#000000" stroke-width="2.0" opacity="0.5" d="M 0.0,0.0 L 60.0,0.0 L 60.0,10.0 L 0.0,10.0 L 0.0,0.0 z" />
<path fill-rule="evenodd" fill="#664924" stroke="#000000" stroke-width="2.0" opacity="0.5" d="M 10.0,10.0 L 20.0,10.0 L 20.0,60.0 L 10.0,60.0 L 10.0,10.0 z" />
<path fill-rule="evenodd" fill="#956280" stroke="#000000" stroke-width="2.0" opacity="0.5" d="M 10.0,10.0 L 60.0,10.0 L 60.0,20.0 L 10.0,20.0 L 10.0,10.0 z" />
<path fill-rule="evenodd" fill="#3F81C4" stroke="#000000" stroke-width="2.0" opacity="0.5" d="M 20.0,20.0 L 30.0,20.0 L 30.0,60.0 L 20.0,60.0 L 20.0,20.0 z" />
<path fill-rule="evenodd" fill="#AABE36" stroke="#000000" stroke-width="2.0" opacity="0.5" d="M 20.0,20.0 L 60.0,20.0 L 60.0,30.0 L 20.0,30.0 L 20.0,20.0 z" />
<path fill-rule="evenodd" fill="#34EEEA" stroke="#000000" stroke-width="2.0" opacity="0.5" d="M 30.0,30.0 L 40.0,30.0 L 40.0,60.0 L 30.0,60.0 L 30.0,30.0 z" />
<path fill-rule="evenodd" fill="#F18A1A" stroke="#000000" stroke-width="2.0" opacity="0.5" d="M 30.0,30.0 L 60.0,30.0 L 60.0,40.0 L 30.0,40.0 L 30.0,30.0 z" />
<path fill-rule="evenodd" fill="#FE898E" stroke="#000000" stroke-width="2.0" opacity="0.5" d="M 40.0,40.0 L 50.0,40.0 L 50.0,60.0 L 40.0,60.0 L 40.0,40.0 z" />
<path fill-rule="evenodd" fill="#C65FAB" stroke="#000000" stroke-width="2.0" opacity="0.5" d="M 40.0,40.0 L 60.0,40.0 L 60.0,50.0 L 40.0,50.0 L 40.0,40.0 z" />
<path fill-rule="evenodd" fill="#D48271" stroke="#000000" stroke-width="2.0" opacity="0.5" d="M 50.0,50.0 L 60.0,50.0 L 60.0,60.0 L 50.0,60.0 L 50.0,50.0 z" />
<path fill-rule="evenodd" fill="#5FAC2E" stroke="#000000" stroke-width="2.0" opacity="0.5" d="M 50.0,50.0 L 60.0,50.0 L 60.0,60.0 L 50.0,60.0 L 50.0,50.0 z" /></svg>