<svg version="1.1" xmlns="http://www.w3.org/2000/svg">
<path fill-rule="evenodd" fill="#FFFFFF" stroke="#000000" stroke-width="2.0" opacity="0.1" d="M 0.0,0.0 L 30.0,0.0 L 30.0,30.0 L 0.0,30.0 L 0.0,0.0 z" />
<path fill-rule="evenodd" fill="#5ACCA0" stroke="#000000" stroke-width="2.0" opacity="0.5" d="M 0.0,0.0 L 10.0,0.0 L 10.0,30.0 L 0.0,30.0 L 0.0,0.0 z" />
<path fill-rule="evenodd" fill="#EA4E9E" stroke="#000000" stroke-width="2.0" opacity="0.5" d="M 0.0,0.0 L 30.0,0.0 L 30.0,10.0 L 0.0,10.0 L 0.0,0.0 z" />
<path fill-rule="evenodd" fill="#2D53A9" stroke="#000000" stroke-width="2.0" opacity="0.5" d="M 10.0,10.0 L 20.0,10.0 L 20.0,30.0 L 10.0,30.0 L 10.0,10.0 z" />
<path fill-rule="evenodd" fill="#DE03C4" stroke="#000000" stroke-width="2.0" opacity="0.5" d="M 10.0,10.0 L 30.0,10.0 L 30.0,20.0 L 10.0,20.0 L 10.0,10.0 z" />
<path fill-rule="evenodd" fill="#C00DB8" stroke="#000000" stroke-width="2.0" opacity="0.5" d="M 20.0,20.0 L 30.0,20.0 L 30.0,30.0 L 20.0,30.0 L 20.0,20.0 z" />
<path fill-rule="evenodd" fill="#A680B8" stroke="#000000" stroke-width="2.0" opacity="0.5" d="M 20.0,20.0 L 30.0,20.0 L 30.0,30.0 L 20.0,30.0 L 20.0,20.0 z" /></svg>