<svg version="1.1" xmlns="http://www.w3.org/2000/svg">
<path fill-rule="evenodd" fill="#FFFFFF" stroke="#000000" stroke-width="2.0" opacity="0.1" d="M 0.0,0.0 L 40.0,0.0 L 40.0,40.0 L 0.0,40.0 L 0.0,0.0 z" />
<path fill-rule="evenodd" fill="#30D336" stroke="#000000" stroke-width="2.0" opacity="0.5" d="M 0.0,0.0 L 10.0,0.0 L 10.0,40.0 L 0.0,40.0 L 0.0,0.0 z" />
<path fill-rule="evenodd" fill="#C16154" stroke="#000000" stroke-width="2.0" opacity="0.5" d="M 0.0,0.0 L 40.0,0.0 L 40.0,10.0 L 0.0,10.0 L 0.0,0.0 z" />
<path fill-rule="evenodd" fill="#25C327" stroke="#000000" stroke-width="2.0" opacity="0.5" d="M 10.0,10.0 L 20.0,10.0 L 20.0,40.0 L 10.0,40.0 L 10.0,10.0 z" />
<path fill-rule="evenodd" fill="#44C73A" stroke="#000000" stroke-width="2.0" opacity="0.5" d="M 10.0,10.0 L 40.0,10.0 L 40.0,20.0 L 10.0,20.0 L 10.0,10.0 z" />
<path fill-rule="evenodd" fill="#016EC9" stroke="#000000" stroke-width="2.0" opacity="0.5" d="M 20.0,20.0 L 30.0,20.0 L 30.0,40.0 L 20.0,40.0 L 20.0,20.0 z" />
<path fill-rule="evenodd" fill="#8EE9AD" stroke="#000000" stroke-width="2.0" opacity="0.5" d="M 20.0,20.0 L 40.0,20.0 L 40.0,30.0 L 20.0,30.0 L 20.0,20.0 z" />
<path fill-rule="evenodd" fill="#49F12F" stroke="#000000" stroke-width="2.0" opacity="0.5" d="M 30.0,30.0 L 40.0,30.0 L 40.0,40.0 L 30.0,40.0 L 30.0,30.0 z" />
<path fill-rule="evenodd" fill="#C17886" stroke="#000000" stroke-width="2.0" opacity="0.5" d="M 30.0,30.0 L 40.0,30.0 L 40.0,40.0 L 30.0,40.0 L 30.0,30.0 z" /></svg>