<svg version="1.1" xmlns="http://www.w3.org/2000/svg">
<path fill-rule="evenodd" fill="#FFFFFF" stroke="#000000" stroke-width="2.0" opacity="0.1" d="M 0.0,0.0 L 40.0,0.0 L 40.0,40.0 L 0.0,40.0 L 0.0,0.0 z" />
<path fill-rule="evenodd" fill="#68EB56" stroke="#000000" stroke-width="2.0" opacity="0.5" d="M 0.0,0.0 L 10.0,0.0 L 10.0,40.0 L 0.0,40.0 L 0.0,0.0 z" />
<path fill-rule="evenodd" fill="#C0DABD" stroke="#000000" stroke-width="2.0" opacity="0.5" d="M 0.0,0.0 L 40.0,0.0 L 40.0,10.0 L 0.0,10.0 L 0.0,0.0 z" />
<path fill-rule="evenodd" fill="#19CA9A" stroke="#000000" stroke-width="2.0" opacity="0.5" d="M 10.0,10.0 L 20.0,10.0 L 20.0,40.0 L 10.0,40.0 L 10.0,10.0 z" />
<path fill-rule="evenodd" fill="#025E85" stroke="#000000" stroke-width="2.0" opacity="0.5" d="M 10.0,10.0 L 40.0,10.0 L 40.0,20.0 L 10.0,20.0 L 10.0,10.0 z" />
<path fill-rule="evenodd" fill="#729A83" stroke="#000000" stroke-width="2.0" opacity="0.5" d="M 20.0,20.0 L 30.0,20.0 L 30.0,40.0 L 20.0,40.0 L 20.0,20.0 z" />
<path fill-rule="evenodd" fill="#DD0A11" stroke="#000000" stroke-width="2.0" opacity="0.5" d="M 20.0,20.0 L 40.0,20.0 L 40.0,30.0 L 20.0,30.0 L 20.0,20.0 z" />
<path fill-rule="evenodd" fill="#E1CB22" stroke="#000000" stroke-width="2.0" opacity="0.5" d="M 30.0,30.0 L 40.0,30.0 L 40.0,40.0 L 30.0,40.0 L 30.0,30.0 z" />
<path fill-rule="evenodd" fill="#C37D27" stroke="#000000" stroke-width="2.0" opacity="0.5" d="M 30.0,30.0 L 40.0,30.0 L 40.0,40.0 L 30.0,40.0 L 30.0,30.0 z" /></svg>