<svg version="1.1" xmlns="http://www.w3.org/2000/svg">
<path fill-rule="evenodd" fill="#FFFFFF" stroke="#000000" stroke-width="2.0" opacity="0.1" d="M 0.0,0.0 L 50.0,0.0 L 50.0,50.0 L 0.0,50.0 L 0.0,0.0 z" />
<path fill-rule="evenodd" fill="#62FA14" stroke="#000000" stroke-width="2.0" opacity="0.5" d="M 0.0,0.0 L 10.0,0.0 L 10.0,50.0 L 0.0,50.0 L 0.0,0.0 z" />
<path fill-rule="evenodd" fill="#676204" stroke="#000000" stroke-width="2.0" opacity="0.5" d="M 0.0,0.0 L 50.0,0.0 L 50.0,10.0 L 0.0,10.0 L 0.0,0.0 z" />
<path fill-rule="evenodd" fill="#2A2020" stroke="#000000" stroke-width="2.0" opacity="0.5" d="M 10.0,10.0 L 20.0,10.0 L 20.0,50.0 L 10.0,50.0 L 10.0,10.0 z" />
<path fill-rule="evenodd" fill="#54E7A1" stroke="#000000" stroke-width="2.0" opacity="0.5" d="M 10.0,10.0 L 50.0,10.0 L 50.0,20.0 L 10.0,20.0 L 10.0,10.0 z" />
<path fill-rule="evenodd" fill="#218586" stroke="#000000" stroke-width="2.0" opacity="0.5" d="M 20.0,20.0 L 30.0,20.0 L 30.0,50.0 L 20.0,50.0 L 20.0,20.0 z" />
<path fill-rule="evenodd" fill="#911109" stroke="#000000" stroke-width="2.0" opacity="0.5" d="M 20.0,20.0 L 50.0,20.0 L 50.0,30.0 L 20.0,30.0 L 20.0,20.0 z" />
<path fill-rule="evenodd" fill="#CF557A" stroke="#000000" stroke-width="2.0" opacity="0.5" d="M 30.0,30.0 L 40.0,30.0 L 40.0,50.0 L 30.0,50.0 L 30.0,30.0 z" />
<path fill-rule="evenodd" fill="#D3EF7A" stroke="#000000" stroke-width="2.0" opacity="0.5" d="M 30.0,30.0 L 50.0,30.0 L 50.0,40.0 L 30.0,40.0 L 30.0,30.0 z" />
<path fill-rule="evenodd" fill="#B28BF0" stroke="#000000" stroke-width="2.0" opacity="0.5" d="M 40.0,40.0 L 50.0,40.0 L 50.0,50.0 L 40.0,50.0 L 40.0,40.0 z" />
<path fill-rule="evenodd" fill="#660BC0" stroke="#000000" stroke-width="2.0" opacity="0.5" d="M 40.0,40.0 L 50.0,40.0 L 50.0,50.0 L 40.0,50.0 L 40.0,40.0 z" /></svg>