<svg version="1.1" xmlns="http://www.w3.org/2000/svg">
<path fill-rule="evenodd" fill="#FFFFFF" stroke="#000000" stroke-width="2.0" opacity="0.1" d="M 0.0,0.0 L 60.0,0.0 L 60.0,60.0 L 0.0,60.0 L 0.0,0.0 z" />
<path fill-rule="evenodd" fill="#707166" stroke="#000000" stroke-width="2.0" opacity="0.5" d="M 0.0,0.0 L 10.0,0.0 L 10.0,60.0 L 0.0,60.0 L 0.0,0.0 z" />
<path fill-rule="evenodd" fill="#94DF0F" stroke="#000000" stroke-width="2.0" opacity="0.5" d="M 0.0,0.0 L 60.0,0.0 L 60.0,10.0 L 0.0,10.0 L 0.0,0.0 z" />
<path fill-rule="evenodd" fill="#4D28C4" stroke="#000000" stroke-width="2.0" opacity="0.5" d="M 10.0,10.0 L 20.0,10.0 L 20.0,60.0 L 10.0,60.0 L 10.0,10.0 z" />
<path fill-rule="evenodd" fill="#DCC47C" stroke="#000000" stroke-width="2.0" opacity="0.5" d="M 10.0,10.0 L 60.0,10.0 L 60.0,20.0 L 10.0,20.0 L 10.0,10.0 z" />
<path fill-rule="evenodd" fill="#585FF1" stroke="#000000" stroke-width="2.0" opacity="0.5" d="M 20.0,20.0 L 30.0,20.0 L 30.0,60.0 L 20.0,60.0 L 20.0,20.0 z" />
<path fill-rule="evenodd" fill="#CEB7A8" stroke="#000000" stroke-width="2.0" opacity="0.5" d="M 20.0,20.0 L 60.0,20.0 L 60.0,30.0 L 20.0,30.0 L 20.0,20.0 z" />
<path fill-rule="evenodd" fill="#75FA43" stroke="#000000" stroke-width="2.0" opacity="0.5" d="M 30.0,30.0 L 40.0,30.0 L 40.0,60.0 L 30.0,60.0 L 30.0,30.0 z" />
<path fill-rule="evenodd" fill="#66EC0F" stroke="#000000" stroke-width="2.0" opacity="0.5" d="M 30.0,30.0 L 60.0,30.0 L 60.0,40.0 L 30.0,40.0 L 30.0,30.0 z" />
<path fill-rule="evenodd" fill="#9D3B3A" stroke="#000000" stroke-width="2.0" opacity="0.5" d="M 40.0,40.0 L 50.0,40.0 L 50.0,60.0 L 40.0,60.0 L 40.0,40.0 z" />
<path fill-rule="evenodd" fill="#1E97A0" stroke="#000000" stroke-width="2.0" opacity="0.5" d="M 40.0,40.0 L 60.0,40.0 L 60.0,50.0 L 40.0,50.0 L 40.0,40.0 z" />
<path fill-rule="evenodd" fill="#DFFAD0" stroke="#000000" stroke-width="2.0" opacity="0.5" d="M 50.0,50.0 L 60.0,50.0 L 60.0,60.0 L 50.0,60.0 L 50.0,50.0 z" />
<path fill-rule="evenodd" fill="#F52E95" stroke="#000000" stroke-width="2.0" opacity="0.5" d="M 50.0,50.0 L 60.0,50.0 L 60.0,60.0 L 50.0,60.0 L 50.0,50.0 z" /></svg>