<svg version="1.1" xmlns="http://www.w3.org/2000/svg">
<path fill-rule="evenodd" fill="#FFFFFF" stroke="#000000" stroke-width="2.0" opacity="0.1" d="M 0.0,0.0 L 70.0,0.0 L 70.0,70.0 L 0.0,70.0 L 0.0,0.0 z" />
<path fill-rule="evenodd" fill="#680090" stroke="#000000" stroke-width="2.0" opacity="0.5" d="M 0.0,0.0 L 10.0,0.0 L 10.0,70.0 L 0.0,70.0 L 0.0,0.0 z" />
<path fill-rule="evenodd" fill="#04027B" stroke="#000000" stroke-width="2.0" opacity="0.5" d="M 0.0,0.0 L 70.0,0.0 L 70.0,10.0 L 0.0,10.0 L 0.0,0.0 z" />
<path fill-rule="evenodd" fill="#5F7246" stroke="#000000" stroke-width="2.0" opacity="0.5" d="M 10.0,10.0 L 20.0,10.0 L 20.0,70.0 L 10.0,70.0 L 10.0,10.0 z" />
<path fill-rule="evenodd" fill="#969216" stroke="#000000" stroke-width="2.0" opacity="0.5" d="M 10.0,10.0 L 70.0,10.0 L 70.0,20.0 L 10.0,20.0 L 10.0,10.0 z" />
<path fill-rule="evenodd" fill="#20025C" stroke="#000000" stroke-width="2.0" opacity="0.5" d="M 20.0,20.0 L 30.0,20.0 L 30.0,70.0 L 20.0,70.0 L 20.0,20.0 z" />
<path fill-rule="evenodd" fill="#7BF557" stroke="#000000" stroke-width="2.0" opacity="0.5" d="M 20.0,20.0 L 70.0,20.0 L 70.0,30.0 L 20.0,30.0 L 20.0,20.0 z" />
<path fill-rule="evenodd" fill="#412E26" stroke="#000000" stroke-width="2.0" opacity="0.5" d="M 30.0,30.0 L 40.0,30.0 L 40.0,70.0 L 30.0,70.0 L 30.0,30.0 z" />
<path fill-rule="evenodd" fill="#4E97D6" stroke="#000000" stroke-width="2.0" opacity="0.5" d="M 30.0,30.0 L 70.0,30.0 L 70.0,40.0 L 30.0,40.0 L 30.0,30.0 z" />
<path fill-rule="evenodd" fill="#A9480C" stroke="#000000" stroke-width="2.0" opacity="0.5" d="M 40.0,40.0 L 50.0,40.0 L 50.0,70.0 L 40.0,70.0 L 40.0,40.0 z" />
<path fill-rule="evenodd" fill="#ED8115" stroke="#000000" stroke-width="2.0" opacity="0.5" d="M 40.0,40.0 L 70.0,40.0 L 70.0,50.0 L 40.0,50.0 L 40.0,40.0 z" />
<path fill-rule="evenodd" fill="#C479AF" stroke="#000000" stroke-width="2.0" opacity="0.5" d="M 50.0,50.0 L 60.0,50.0 L 60.0,70.0 L 50.0,70.0 L 50.0,50.0 z" />
<path fill-rule="evenodd" fill="#41B1AE" stroke="#000000" stroke-width="2.0" opacity="0.5" d="M 50.0,50.0 L 70.0,50.0 L 70.0,60.0 L 50.0,60.0 L 50.0,50.0 z" />
<path fill-rule="evenodd" fill="#EBCDCD" stroke="#000000" stroke-width="2.0" opacity="0.5" d="M 60.0,60.0 L 70.0,60.0 L 70.0,70.0 L 60.0,70.0 L 60.0,60.0 z" />
<path fill-rule="evenodd" fill="#377457" stroke="#000000" stroke-width="2.0" opacity="0.5" d="M 60.0,60.0 L 70.0,60.0 L 70.0,70.0 L 60.0,70.0 L 60.0,60.0 z" /></svg>