<svg version="1.1" xmlns="http://www.w3.org/2000/svg">
<path fill-rule="evenodd" fill="#FFFFFF" stroke="#000000" stroke-width="2.0" opacity="0.1" d="M 0.0,0.0 L 70.0,0.0 L 70.0,70.0 L 0.0,70.0 L 0.0,0.0 z" />
<path fill-rule="evenodd" fill="#CE3FE2" stroke="#000000" stroke-width="2.0" opacity="0.5" d="M 0.0,0.0 L 10.0,0.0 L 10.0,70.0 L 0.0,70.0 L 0.0,0.0 z" />
<path fill-rule="evenodd" fill="#7C71E2" stroke="#000000" stroke-width="2.0" opacity="0.5" d="M 0.0,0.0 L 70.0,0.0 L 70.0,10.0 L 0.0,10.0 L 0.0,0.0 z" />
<path fill-rule="evenodd" fill="#3C11C5" stroke="#000000" stroke-width="2.0" opacity="0.5" d="M 10.0,10.0 L 20.0,10.0 L 20.0,70.0 L 10.0,70.0 L 10.0,10.0 z" />
<path fill-rule="evenodd" fill="#5CDA4D" stroke="#000000" stroke-width="2.0" opacity="0.5" d="M 10.0,10.0 L 70.0,10.0 L 70.0,20.0 L 10.0,20.0 L 10.0,10.0 z" />
<path fill-rule="evenodd" fill="#ADA64A" stroke="#000000" stroke-width="2.0" opacity="0.5" d="M 20.0,20.0 L 30.0,20.0 L 30.0,70.0 L 20.0,70.0 L 20.0,20.0 z" />
<path fill-rule="evenodd" fill="#360066" stroke="#000000" stroke-width="2.0" opacity="0.5" d="M 20.0,20.0 L 70.0,20.0 L 70.0,30.0 L 20.0,30.0 L 20.0,20.0 z" />
<path fill-rule="evenodd" fill="#0615AE" stroke="#000000" stroke-width="2.0" opacity="0.5" d="M 30.0,30.0 L 40.0,30.0 L 40.0,70.0 L 30.0,70.0 L 30.0,30.0 z" />
<path fill-rule="evenodd" fill="#838385" stroke="#000000" stroke-width="2.0" opacity="0.5" d="M 30.0,30.0 L 70.0,30.0 L 70.0,40.0 L 30.0,40.0 L 30.0,30.0 z" />
<path fill-rule="evenodd" fill="#25E13C" stroke="#000000" stroke-width="2.0" opacity="0.5" d="M 40.0,40.0 L 50.0,40.0 L 50.0,70.0 L 40.0,70.0 L 40.0,40.0 z" />
<path fill-rule="evenodd" fill="#C09790" stroke="#000000" stroke-width="2.0" opacity="0.5" d="M 40.0,40.0 L 70.0,40.0 L 70.0,50.0 L 40.0,50.0 L 40.0,40.0 z" />
<path fill-rule="evenodd" fill="#A11121" stroke="#000000" stroke-width="2.0" opacity="0.5" d="M 50.0,50.0 L 60.0,50.0 L 60.0,70.0 L 50.0,70.0 L 50.0,50.0 z" />
<path fill-rule="evenodd" fill="#26BBA6" stroke="#000000" stroke-width="2.0" opacity="0.5" d="M 50.0,50.0 L 70.0,50.0 L 70.0,60.0 L 50.0,60.0 L 50.0,50.0 z" />
<path fill-rule="evenodd" fill="#E2BF38" stroke="#000000" stroke-width="2.0" opacity="0.5" d="M 60.0,60.0 L 70.0,60.0 L 70.0,70.0 L 60.0,70.0 L 60.0,60.0 z" />
<path fill-rule="evenodd" fill="#07761F" stroke="#000000" stroke-width="2.0" opacity="0.5" d="M 60.0,60.0 L 70.0,60.0 L 70.0,70.0 L 60.0,70.0 L 60.0,60.0 z" /></svg>